<?xml version="1.0" encoding="UTF-8" standalone="no"?>
<svg
   version="1.2"
   id="openrndr-svg"
   y="0.0"
   width="300"
   x="0.0"
   height="300"
   viewBox="0 0 91.476578 91.476578"
   xml:space="preserve"
   xmlns="http://www.w3.org/2000/svg"
   xmlns:svg="http://www.w3.org/2000/svg"><defs
     id="defs9379" /><g
     id="g18"
     transform="matrix(0.83246865,0.05002432,-0.05002432,0.83246865,18.130004,10.58204)"><path
       style="fill:#f2f2f2;fill-opacity:0.847087;stroke-width:1;stroke-linecap:round;stroke-linejoin:round;paint-order:stroke markers fill"
       id="path17"
       d="m 8.3482912,83.009587 c 0.698844,-1.174588 1.8031558,-1.98492 2.8254238,-2.855854 1.783466,-1.519447 2.178653,-1.973353 4.282982,-3.246631 0.946944,-0.572973 1.948331,-1.050724 2.922498,-1.576086 3.481128,-1.669216 2.649829,-1.482304 6.49687,-2.442461 1.146638,-0.286181 2.292265,-0.609102 3.46619,-0.745416 1.275405,-0.1481 2.566995,-0.138374 3.850513,-0.10419 2.963005,0.07892 6.272001,0.554305 9.193982,0.907283 4.55717,0.506743 4.810448,0.413123 9.257903,1.384932 1.430475,0.312573 2.843252,0.701387 4.262144,1.062924 1.157769,0.295002 3.661733,0.887217 5.10808,1.420011 0.780606,0.287554 1.545844,0.615219 2.318766,0.922829 0.985369,-0.729615 1.274056,0.978556 2.023486,0.979959 0.04028,7.6e-5 -0.03885,-1.077881 0.443198,-0.65931 0.208497,0.181041 0.09172,0.544584 0.137581,0.816874 -0.05674,0.01879 0.209021,0.821196 0.26576,0.802405 v 0 c 0.62112,0.177033 1.234729,0.679278 1.863358,0.531103 0.64113,-0.151119 1.18081,-0.72704 1.47282,-1.317471 0.28562,-0.577469 0.23305,-1.291839 0.13244,-1.928172 -0.25933,-1.64028 -1.22254,-2.432072 -2.230712,-3.65787 -0.830418,-0.601038 -1.585806,-1.322488 -2.491255,-1.803115 -1.875708,-0.99565 -6.778604,-2.945727 -9.045115,-3.571165 -4.757801,-1.3129 -9.702236,-1.646796 -14.586497,-2.152296 -1.716837,0.01119 -3.435583,-0.04808 -5.150512,0.03361 -3.282328,0.156353 -5.7405,0.529882 -8.927978,1.207466 -1.325671,0.281808 -2.66219,0.542531 -3.948972,0.967986 -2.828118,0.935072 -4.550244,2.003121 -7.134532,3.396396 -0.98852,0.752369 -2.025595,1.444892 -2.965564,2.257107 -0.81838,0.707149 -1.573575,1.487625 -2.2978238,2.290916 -1.514927,1.680258 -2.716776,3.447463 -3.234534,5.671066 -0.06903,0.296479 -0.06566,0.605269 -0.0985,0.907902 -0.0353,0.126428 1.75269,0.625694 1.787996,0.499263 z" /><path
       style="fill:#f2f2f2;fill-opacity:0.847087;stroke-width:1;stroke-linecap:round;stroke-linejoin:round;paint-order:stroke markers fill"
       id="path18"
       d="m 32.315319,31.421303 c 0.208563,0.231558 0.384103,0.497811 0.625687,0.694674 0.299169,0.24379 0.626342,0.462793 0.981117,0.614691 1.826046,0.781827 3.673504,1.196983 5.588362,0.404574 0.635664,-0.263054 1.179931,-0.707692 1.769899,-1.061537 0.989944,-1.178457 1.709568,-1.748383 2.067404,-3.319968 0.353676,-1.553313 0.165211,-2.882532 -0.562015,-4.291034 -0.909862,-1.762244 -1.630667,-2.066785 -3.143443,-3.26272 -1.128662,-0.461523 -2.209335,-1.064609 -3.385984,-1.384567 -0.829093,-0.225449 -1.707745,-0.23789 -2.566935,-0.234167 -2.627564,0.01138 -5.263499,0.759685 -7.524773,2.090518 -0.741059,0.436139 -1.400594,0.99794 -2.10089,1.496909 -1.193805,1.337697 -1.956049,1.924243 -2.575729,3.645411 -0.628256,1.744969 -0.677783,3.21006 -0.202893,5.016995 0.658841,2.506853 1.35274,3.056628 2.845945,5.112609 1.80466,1.746817 3.064219,3.214876 5.405176,4.356722 3.56988,1.741276 6.218735,2.507787 10.132716,2.47192 3.833071,-0.03512 6.845305,-1.110985 10.554975,-2.080643 4.024693,-2.013183 7.133643,-3.166269 10.402009,-6.403999 1.499071,-1.485016 2.901603,-3.139125 3.853253,-5.022435 1.82875,-3.619087 2.532536,-8.448267 1.26016,-12.385061 -0.7687,-2.378371 -2.394087,-4.388453 -3.59113,-6.582677 C 59.295468,9.0563938 56.728219,6.3940778 53.589951,4.5741448 50.985144,3.0635758 48.040969,2.1694898 45.123449,1.4245698 39.058717,-0.12391418 33.14769,-0.43301918 26.979726,0.61028282 24.232362,1.0749958 21.508328,1.8144038 18.936417,2.8864288 c -2.444319,1.018843 -4.595403,2.633105 -6.893105,3.949658 -1.962589,1.939442 -4.2105838,3.6273782 -5.8877648,5.8183262 -6.04153299,7.892221 -8.12083,19.261608 -4.040322,28.503937 0.989057,2.240209 2.57666,4.165079 3.864988,6.24762 1.808406,1.631696 3.458019,3.45881 5.4252178,4.895088 6.055151,4.420941 11.158751,6.297631 18.672603,8.122515 6.048798,1.469064 12.966795,1.764792 19.148478,1.126725 3.162816,-0.326461 6.257745,-1.131612 9.386615,-1.697418 3.001925,-1.451499 6.003843,-2.903 9.005769,-4.354499 0.5687,-0.273318 -3.296586,-8.315934 -3.865286,-8.042617 v 0 c -2.867533,0.486471 -5.735063,0.972945 -8.602591,1.459416 -2.686632,0.316148 -5.357365,0.829027 -8.059899,0.948441 C 41.935466,50.091425 35.461799,49.339378 30.360154,48.86606 25.772001,48.44038 22.983581,48.468013 18.516965,46.450001 16.871156,45.706429 15.55016,44.389805 14.066761,43.359708 12.940813,42.085667 11.548575,41.004532 10.688918,39.53759 8.9810882,36.6233 8.6999602,33.02199 9.1826132,29.767631 c 0.277029,-1.867922 0.8462408,-3.694594 1.5325118,-5.453827 0.718817,-1.842678 1.54401,-3.671753 2.663441,-5.302406 1.074155,-1.564704 2.569252,-2.794167 3.853879,-4.191249 1.757642,-0.826077 3.420046,-1.896393 5.272931,-2.478228 4.518231,-1.418794 9.108644,-1.476245 13.784776,-1.20083 2.512605,0.147987 5.037066,0.351645 7.501228,0.864476 3.57418,0.743844 6.899685,2.439688 10.487398,3.157066 1.216639,0.976242 2.787552,1.628881 3.649914,2.928721 0.69052,1.040823 0.751588,2.426216 0.731303,3.675102 -0.109847,6.763181 -7.061171,10.054945 -12.068384,12.9105 -1.371452,0.682397 -2.654514,1.583073 -4.114358,2.04719 -1.180828,0.375409 -2.454132,0.373917 -3.691715,0.43453 -1.18562,0.05807 -2.373903,-0.03847 -3.560242,-0.07935 -0.626451,-0.02159 -1.26774,0.03781 -1.877364,-0.108013 -2.698057,-0.645391 -2.820948,-0.998564 -4.931984,-2.468161 -0.937832,-0.973 -2.102239,-2.072007 -2.837299,-3.234343 -0.408376,-0.645755 -0.880936,-1.68557 -0.622337,-2.510785 0.281154,-0.897196 1.329883,-1.602306 1.963465,-2.146612 0.527481,-0.359854 1.024279,-0.769424 1.582441,-1.079558 1.034018,-0.574537 2.564008,-1.133261 3.727603,-1.354116 2.331519,-0.442535 1.426097,-0.04924 3.709633,0.01299 0.243253,0.0066 0.479682,-0.08228 0.719524,-0.123421 1.45369,0.642652 2.27642,0.873882 3.010384,2.398104 0.145765,0.30271 0.307724,0.622721 0.311222,0.958678 0.0087,0.838724 -0.504667,1.304065 -0.960898,1.914621 -0.266478,0.230692 -0.487442,0.5281 -0.799436,0.692083 -0.791795,0.416166 -1.398241,0.254805 -2.243447,0.375436 -0.157716,0.02252 -0.293873,0.156226 -0.453133,0.151995 -0.577393,-0.01534 -1.124387,-0.324135 -1.71522,-0.246163 -0.07843,-0.105579 -1.571564,1.003655 -1.493131,1.109234 z" /></g></svg>
